# xmcd CD database file
#
# Track frame offsets:
#	150
#	12896
#	24366
#	37826
#	48636
#	60835
#	73623
#	83991
#	96886
#	109936
#	123392
#	141705
#	156221
#	170258
#	181836
#	194825
#	208706
#	223748
#	236192
#	247887
#	259199
#	270425
#	283681
#	296200
#	310399
#
# Disc length: 4419 seconds
#
# Revision: 0
# Processed by: cddbd v1.5.2PL0 Copyright (c) Steve Scherf et al.
# Submitted via: CDex 1.70beta2
#
DISCID=7a114119
DTITLE=Various Artist - Electric Blues Vol3 1960-1969 CD2
DYEAR=2011
DGENRE=Blues
TTITLE0=Tommy Tucker - Hi-Heel Sneakers
TTITLE1=Lillte Frankie Lee and The Saxtons - Full Time Lover
TTITLE2=B.B. King - Rock Me Baby
TTITLE3=Timmy Shaw - Gonny Send You Back To Georgia
TTITLE4=Sugar Pie DeSanto - Use What You Got
TTITLE5=Howlin' Wolf - Killing Floor
TTITLE6=Rufus Thomas - All Night Worker
TTITLE7=Junior Wells - Snatch It Back And Hold It
TTITLE8=Slim Harpo - Baby Scatch My Back
TTITLE9=Koko Taylor - Little Bluebird
TTITLE10=Lilttle Milton - Feel So Bad
TTITLE11=Johnnie Taylor - Little Bluebird
TTITLE12=Wilson Picket - Mustang Sally
TTITLE13=Albert King - Crosscut Saw
TTITLE14=Mable John - You
TTITLE15=Lowell Fulsom - Tramp
TTITLE16=Aretha Franklin - Dr. Feelgood
TTITLE17=Albert King - Born Under A Bad Sign
TTITLE18=Etta James - I'd Rather Go Blind
TTITLE19=Buddy Guy - Mary Had A Little Lamb
TTITLE20=Clarence Carter - Slip Away
TTITLE21=Sonny Rhodes - One Of These Days
TTITLE22=Tyrone Davis - A Woman Needs To Be Loved
TTITLE23=Magic Sam - What Have I Done Wrong
TTITLE24=Calvin Leavy - Cummins Prison Farm
EXTD=YEAR: 2011
EXTT0=
EXTT1=
EXTT2=
EXTT3=
EXTT4=
EXTT5=
EXTT6=
EXTT7=
EXTT8=
EXTT9=
EXTT10=
EXTT11=
EXTT12=
EXTT13=
EXTT14=
EXTT15=
EXTT16=
EXTT17=
EXTT18=
EXTT19=
EXTT20=
EXTT21=
EXTT22=
EXTT23=
EXTT24=
PLAYORDER=
